<?xml version="1.0" encoding="UTF-8" standalone="no"?>
<svg
   xmlns:dc="http://purl.org/dc/elements/1.1/"
   xmlns:cc="http://creativecommons.org/ns#"
   xmlns:rdf="http://www.w3.org/1999/02/22-rdf-syntax-ns#"
   xmlns:svg="http://www.w3.org/2000/svg"
   xmlns="http://www.w3.org/2000/svg"
   width="165"
   height="30"
   viewBox="0 0 165 30"
   id="svg2"
   version="1.1">
  <defs
     id="defs4" />
  <metadata
     id="metadata7">
    <rdf:RDF>
      <cc:Work
         rdf:about="">
        <dc:format>image/svg+xml</dc:format>
        <dc:type
           rdf:resource="http://purl.org/dc/dcmitype/StillImage" />
        <dc:title></dc:title>
      </cc:Work>
    </rdf:RDF>
  </metadata>
  <g
     id="layer1"
     transform="translate(-0.35460114,1.6670113)">
    <g
       id="text4136"
       style="font-style:normal;font-variant:normal;font-weight:normal;font-stretch:normal;font-size:40px;line-height:125%;font-family:FontAwesome;-inkscape-font-specification:FontAwesome;letter-spacing:0px;word-spacing:0px;fill:#000000;fill-opacity:1;stroke:none;stroke-width:1px;stroke-linecap:butt;stroke-linejoin:miter;stroke-opacity:1">
      <path
         id="path4139"
         style="fill:#1c1c1c;fill-opacity:1"
         d="m 3.1224584,27.334108 0,-27.92968715 12.4999996,0 q 8.554688,0 8.554688,7.87109375 0,8.5351564 -11.699219,10.3320314 L 11.73574,12.998171 q 7.03125,-1.269531 7.03125,-5.5664064 0,-3.4765625 -3.476563,-3.4765625 l -6.9921874,0 0,23.3789059 -5.1757812,0 z" />
      <path
         id="path4141"
         style="fill:#1c1c1c;fill-opacity:1"
         d="m 38.513083,22.841921 q 8.691407,0 8.691407,-10.234375 0,-8.7109376 -8.691407,-8.7109376 l -5.761718,0 0,18.9453126 5.761718,0 z m -10.9375,4.492187 0,-27.92968715 10.9375,0 q 13.867188,0 13.867188,13.20312515 0,14.726562 -13.867188,14.726562 l -10.9375,0 z" />
      <path
         id="path4143"
         style="fill:#1c1c1c;fill-opacity:1"
         d="m 75.134177,-0.59557915 0,4.45312505 -13.203125,0 0,7.0312501 12.539063,0 0,4.628906 -12.597657,0 0,11.816406 -5.078125,0 0,-27.92968715 18.339844,0 z" />
      <path
         id="path4145"
         style="fill:#5e5e5e;fill-opacity:1"
         d="m 79.040427,26.162233 0,-4.6875 q 4.199219,1.5625 9.492188,1.5625 6.425781,0 6.425781,-4.296875 0,-3.125 -3.945313,-3.125 l -4.375,0 q -8.574218,0 -8.574218,-7.8124996 0,-8.59375005 12.207031,-8.59375005 4.6875,0 8.886719,1.3671875 l 0,4.68750005 q -4.199219,-1.5625 -8.886719,-1.5625 -7.03125,0 -7.03125,4.1015625 0,3.1249996 3.398437,3.1249996 l 4.375,0 q 9.121097,0 9.121097,7.8125 0,8.789063 -11.601565,8.789063 -5.292969,0 -9.492188,-1.367188 z" />
      <path
         id="path4147"
         style="fill:#5e5e5e;fill-opacity:1"
         d="m 107.3998,27.334108 -5.3125,0 11.85547,-27.92968715 5.56641,0 12.10937,27.92968715 -5.5664,0 -3.1836,-7.617187 -9.27734,0 1.77734,-4.492188 5.625,0 -4.39453,-10.4882809 -9.19922,22.5976559 z" />
      <path
         id="path4149"
         style="fill:#5e5e5e;fill-opacity:1"
         d="m 135.07558,27.334108 0,-27.92968715 5.3711,0 9.47265,21.19140615 9.27735,-21.19140615 5.17578,0 0,27.92968715 -4.78516,0 0,-19.4531246 -7.57812,19.4531246 -4.41407,0 -7.73437,-19.4531246 0,19.4531246 -4.78516,0 z" />
    </g>
  </g>
</svg>
